<?xml version="1.0" encoding="UTF-8" standalone="no"?>
<svg
   xmlns:dc="http://purl.org/dc/elements/1.1/"
   xmlns:cc="http://creativecommons.org/ns#"
   xmlns:rdf="http://www.w3.org/1999/02/22-rdf-syntax-ns#"
   xmlns:svg="http://www.w3.org/2000/svg"
   xmlns="http://www.w3.org/2000/svg"
   xmlns:sodipodi="http://sodipodi.sourceforge.net/DTD/sodipodi-0.dtd"
   xmlns:inkscape="http://www.inkscape.org/namespaces/inkscape"
   viewBox="0 0 1920 1152.0001"
   width="20in"
   height="12in"
   version="1.1"
   id="svg2468"
   sodipodi:docname="top.svg"
   inkscape:version="1.0.1 (3bc2e813f5, 2020-09-07)">
  <metadata
     id="metadata2472">
    <rdf:RDF>
      <cc:Work
         rdf:about="">
        <dc:format>image/svg+xml</dc:format>
        <dc:type
           rdf:resource="http://purl.org/dc/dcmitype/StillImage" />
        <dc:title />
      </cc:Work>
    </rdf:RDF>
  </metadata>
  <sodipodi:namedview
     pagecolor="#ffffff"
     bordercolor="#666666"
     borderopacity="1"
     objecttolerance="10"
     gridtolerance="10"
     guidetolerance="10"
     inkscape:pageopacity="0"
     inkscape:pageshadow="2"
     inkscape:window-width="1920"
     inkscape:window-height="1017"
     id="namedview2470"
     showgrid="false"
     inkscape:zoom="0.36836772"
     inkscape:cx="815.37356"
     inkscape:cy="940.64492"
     inkscape:window-x="-8"
     inkscape:window-y="-8"
     inkscape:window-maximized="1"
     inkscape:current-layer="g2464"
     units="in"
     inkscape:document-rotation="0" />
  <defs
     id="defs846">
    <marker
       id="DistanceX"
       orient="auto"
       refX="0"
       refY="0"
       style="overflow:visible">
      <path
         d="M 3,-3 -3,3 M 0,-5 V 5"
         style="stroke:#000000;stroke-width:0.5"
         id="path833" />
    </marker>
    <pattern
       id="Hatch"
       patternUnits="userSpaceOnUse"
       width="8"
       height="8"
       x="0"
       y="0">
      <path
         d="M8 4 l-4,4"
         stroke="#000000"
         stroke-width="0.25"
         linecap="square"
         id="path836" />
      <path
         d="M6 2 l-4,4"
         stroke="#000000"
         stroke-width="0.25"
         linecap="square"
         id="path838" />
      <path
         d="M4 0 l-4,4"
         stroke="#000000"
         stroke-width="0.25"
         linecap="square"
         id="path840" />
    </pattern>
    <symbol
       id="*Model_Space" />
    <symbol
       id="*Paper_Space" />
    <symbol
       id="*Paper_Space0" />
  </defs>
  <g
     inkscape:groupmode="layer"
     inkscape:label="0"
     id="g2464">
    <g
       id="g2708"
       transform="rotate(90,1135.531,-928.10754)">
      <path
         d="m 2320.8,-1092.4461 a 44.64,44.64 0 1 0 -89.28,0 44.64,44.64 0 1 0 89.28,0 z"
         style="fill:none;stroke:#ff0000;stroke-linecap:round"
         id="path848" />
      <path
         d="m 2453.0835,-1092.4461 a 44.64,44.64 0 1 0 -89.28,0 44.64,44.64 0 1 0 89.28,0 z"
         style="fill:none;stroke:#ff0000;stroke-linecap:round"
         id="path850" />
      <path
         d="m 2585.3669,-1092.4461 a 44.64,44.64 0 1 0 -89.28,0 44.64,44.64 0 1 0 89.28,0 z"
         style="fill:none;stroke:#ff0000;stroke-linecap:round"
         id="path852" />
      <path
         d="m 2717.6504,-1092.4461 a 44.64,44.64 0 1 0 -89.28,0 44.64,44.64 0 1 0 89.28,0 z"
         style="fill:none;stroke:#ff0000;stroke-linecap:round"
         id="path854" />
      <path
         d="m 2849.9339,-1092.4461 a 44.64,44.64 0 1 0 -89.28,0 44.64,44.64 0 1 0 89.28,0 z"
         style="fill:none;stroke:#ff0000;stroke-linecap:round"
         id="path856" />
      <path
         d="m 2982.2173,-1092.4461 a 44.64,44.64 0 1 0 -89.28,0 44.64,44.64 0 1 0 89.28,0 z"
         style="fill:none;stroke:#ff0000;stroke-linecap:round"
         id="path858" />
      <path
         d="m 2453.0835,-960.16265 a 44.64,44.64 0 1 0 -89.28,0 44.64,44.64 0 1 0 89.28,0 z"
         style="fill:none;stroke:#ff0000;stroke-linecap:round"
         id="path860" />
      <path
         d="m 2585.3669,-960.16265 a 44.64,44.64 0 1 0 -89.28,0 44.64,44.64 0 1 0 89.28,0 z"
         style="fill:none;stroke:#ff0000;stroke-linecap:round"
         id="path862" />
      <path
         d="m 2717.6504,-960.16265 a 44.64,44.64 0 1 0 -89.28,0 44.64,44.64 0 1 0 89.28,0 z"
         style="fill:none;stroke:#ff0000;stroke-linecap:round"
         id="path864" />
      <path
         d="m 2849.9339,-960.16265 a 44.64,44.64 0 1 0 -89.28,0 44.64,44.64 0 1 0 89.28,0 z"
         style="fill:none;stroke:#ff0000;stroke-linecap:round"
         id="path866" />
      <path
         d="m 2982.2173,-960.16265 a 44.64,44.64 0 1 0 -89.28,0 44.64,44.64 0 1 0 89.28,0 z"
         style="fill:none;stroke:#ff0000;stroke-linecap:round"
         id="path868" />
      <path
         d="m 2453.0835,-827.87919 a 44.64,44.64 0 1 0 -89.28,0 44.64,44.64 0 1 0 89.28,0 z"
         style="fill:none;stroke:#ff0000;stroke-linecap:round"
         id="path870" />
      <path
         d="m 2585.3669,-827.87919 a 44.64,44.64 0 1 0 -89.28,0 44.64,44.64 0 1 0 89.28,0 z"
         style="fill:none;stroke:#ff0000;stroke-linecap:round"
         id="path872" />
      <path
         d="m 2717.6504,-827.87919 a 44.64,44.64 0 1 0 -89.28,0 44.64,44.64 0 1 0 89.28,0 z"
         style="fill:none;stroke:#ff0000;stroke-linecap:round"
         id="path874" />
      <path
         d="m 2849.9339,-827.87919 a 44.64,44.64 0 1 0 -89.28,0 44.64,44.64 0 1 0 89.28,0 z"
         style="fill:none;stroke:#ff0000;stroke-linecap:round"
         id="path876" />
      <path
         d="m 2982.2173,-827.87919 a 44.64,44.64 0 1 0 -89.28,0 44.64,44.64 0 1 0 89.28,0 z"
         style="fill:none;stroke:#ff0000;stroke-linecap:round"
         id="path878" />
      <path
         d="m 2453.0835,-695.59572 a 44.64,44.64 0 1 0 -89.28,0 44.64,44.64 0 1 0 89.28,0 z"
         style="fill:none;stroke:#ff0000;stroke-linecap:round"
         id="path880" />
      <path
         d="m 2585.3669,-695.59572 a 44.64,44.64 0 1 0 -89.28,0 44.64,44.64 0 1 0 89.28,0 z"
         style="fill:none;stroke:#ff0000;stroke-linecap:round"
         id="path882" />
      <path
         d="m 2717.6504,-695.59572 a 44.64,44.64 0 1 0 -89.28,0 44.64,44.64 0 1 0 89.28,0 z"
         style="fill:none;stroke:#ff0000;stroke-linecap:round"
         id="path884" />
      <path
         d="m 2849.9339,-695.59572 a 44.64,44.64 0 1 0 -89.28,0 44.64,44.64 0 1 0 89.28,0 z"
         style="fill:none;stroke:#ff0000;stroke-linecap:round"
         id="path886" />
      <path
         d="m 2982.2173,-695.59572 a 44.64,44.64 0 1 0 -89.28,0 44.64,44.64 0 1 0 89.28,0 z"
         style="fill:none;stroke:#ff0000;stroke-linecap:round"
         id="path888" />
      <path
         d="m 2453.0835,-563.31226 a 44.64,44.64 0 1 0 -89.28,0 44.64,44.64 0 1 0 89.28,0 z"
         style="fill:none;stroke:#ff0000;stroke-linecap:round"
         id="path890" />
      <path
         d="m 2585.3669,-563.31226 a 44.64,44.64 0 1 0 -89.28,0 44.64,44.64 0 1 0 89.28,0 z"
         style="fill:none;stroke:#ff0000;stroke-linecap:round"
         id="path892" />
      <path
         d="m 2717.6504,-563.31226 a 44.64,44.64 0 1 0 -89.28,0 44.64,44.64 0 1 0 89.28,0 z"
         style="fill:none;stroke:#ff0000;stroke-linecap:round"
         id="path894" />
      <path
         d="m 2849.9339,-563.31226 a 44.64,44.64 0 1 0 -89.28,0 44.64,44.64 0 1 0 89.28,0 z"
         style="fill:none;stroke:#ff0000;stroke-linecap:round"
         id="path896" />
      <path
         d="m 2982.2173,-563.31226 a 44.64,44.64 0 1 0 -89.28,0 44.64,44.64 0 1 0 89.28,0 z"
         style="fill:none;stroke:#ff0000;stroke-linecap:round"
         id="path898" />
      <path
         d="m 2453.0835,-431.02879 a 44.64,44.64 0 1 0 -89.28,0 44.64,44.64 0 1 0 89.28,0 z"
         style="fill:none;stroke:#ff0000;stroke-linecap:round"
         id="path900" />
      <path
         d="m 2585.3669,-431.02879 a 44.64,44.64 0 1 0 -89.28,0 44.64,44.64 0 1 0 89.28,0 z"
         style="fill:none;stroke:#ff0000;stroke-linecap:round"
         id="path902" />
      <path
         d="m 2717.6504,-431.02879 a 44.64,44.64 0 1 0 -89.28,0 44.64,44.64 0 1 0 89.28,0 z"
         style="fill:none;stroke:#ff0000;stroke-linecap:round"
         id="path904" />
      <path
         d="m 2849.9339,-431.02879 a 44.64,44.64 0 1 0 -89.28,0 44.64,44.64 0 1 0 89.28,0 z"
         style="fill:none;stroke:#ff0000;stroke-linecap:round"
         id="path906" />
      <path
         d="m 2982.2173,-431.02879 a 44.64,44.64 0 1 0 -89.28,0 44.64,44.64 0 1 0 89.28,0 z"
         style="fill:none;stroke:#ff0000;stroke-linecap:round"
         id="path908" />
      <path
         d="m 2453.0835,-298.74533 a 44.64,44.64 0 1 0 -89.28,0 44.64,44.64 0 1 0 89.28,0 z"
         style="fill:none;stroke:#ff0000;stroke-linecap:round"
         id="path910" />
      <path
         d="m 2585.3669,-298.74533 a 44.64,44.64 0 1 0 -89.28,0 44.64,44.64 0 1 0 89.28,0 z"
         style="fill:none;stroke:#ff0000;stroke-linecap:round"
         id="path912" />
      <path
         d="m 2717.6504,-298.74533 a 44.64,44.64 0 1 0 -89.28,0 44.64,44.64 0 1 0 89.28,0 z"
         style="fill:none;stroke:#ff0000;stroke-linecap:round"
         id="path914" />
      <path
         d="m 2849.9339,-298.74533 a 44.64,44.64 0 1 0 -89.28,0 44.64,44.64 0 1 0 89.28,0 z"
         style="fill:none;stroke:#ff0000;stroke-linecap:round"
         id="path916" />
      <path
         d="m 2982.2173,-298.74533 a 44.64,44.64 0 1 0 -89.28,0 44.64,44.64 0 1 0 89.28,0 z"
         style="fill:none;stroke:#ff0000;stroke-linecap:round"
         id="path918" />
      <path
         d="m 2453.0835,-166.46187 a 44.64,44.64 0 1 0 -89.28,0 44.64,44.64 0 1 0 89.28,0 z"
         style="fill:none;stroke:#ff0000;stroke-linecap:round"
         id="path920" />
      <path
         d="m 2585.3669,-166.46187 a 44.64,44.64 0 1 0 -89.28,0 44.64,44.64 0 1 0 89.28,0 z"
         style="fill:none;stroke:#ff0000;stroke-linecap:round"
         id="path922" />
      <path
         d="m 2717.6504,-166.46187 a 44.64,44.64 0 1 0 -89.28,0 44.64,44.64 0 1 0 89.28,0 z"
         style="fill:none;stroke:#ff0000;stroke-linecap:round"
         id="path924" />
      <path
         d="m 2849.9339,-166.46187 a 44.64,44.64 0 1 0 -89.28,0 44.64,44.64 0 1 0 89.28,0 z"
         style="fill:none;stroke:#ff0000;stroke-linecap:round"
         id="path926" />
      <path
         d="m 2982.2173,-166.46187 a 44.64,44.64 0 1 0 -89.28,0 44.64,44.64 0 1 0 89.28,0 z"
         style="fill:none;stroke:#ff0000;stroke-linecap:round"
         id="path928" />
      <path
         d="m 2320.8,-960.16265 a 44.64,44.64 0 1 0 -89.28,0 44.64,44.64 0 1 0 89.28,0 z"
         style="fill:none;stroke:#ff0000;stroke-linecap:round"
         id="path930" />
      <path
         d="m 2320.8,-827.87919 a 44.64,44.64 0 1 0 -89.28,0 44.64,44.64 0 1 0 89.28,0 z"
         style="fill:none;stroke:#ff0000;stroke-linecap:round"
         id="path932" />
      <path
         d="m 2320.8,-695.59572 a 44.64,44.64 0 1 0 -89.28,0 44.64,44.64 0 1 0 89.28,0 z"
         style="fill:none;stroke:#ff0000;stroke-linecap:round"
         id="path934" />
      <path
         d="m 2320.8,-563.31226 a 44.64,44.64 0 1 0 -89.28,0 44.64,44.64 0 1 0 89.28,0 z"
         style="fill:none;stroke:#ff0000;stroke-linecap:round"
         id="path936" />
      <path
         d="m 2320.8,-431.02879 a 44.64,44.64 0 1 0 -89.28,0 44.64,44.64 0 1 0 89.28,0 z"
         style="fill:none;stroke:#ff0000;stroke-linecap:round"
         id="path938" />
      <path
         d="m 2320.8,-298.74533 a 44.64,44.64 0 1 0 -89.28,0 44.64,44.64 0 1 0 89.28,0 z"
         style="fill:none;stroke:#ff0000;stroke-linecap:round"
         id="path940" />
      <path
         d="m 2320.8,-166.46187 a 44.64,44.64 0 1 0 -89.28,0 44.64,44.64 0 1 0 89.28,0 z"
         style="fill:none;stroke:#ff0000;stroke-linecap:round"
         id="path942" />
      <path
         d="m 2147.328,-1194.1523 v 43.584"
         style="fill:none;stroke:#000000;stroke-linecap:round"
         id="path2104" />
      <path
         d="M 2147.328,-1150.5683 H 2136"
         style="fill:none;stroke:#000000;stroke-linecap:round"
         id="path2106" />
      <path
         d="m 2136,-1150.5683 v 45.312"
         style="fill:none;stroke:#000000;stroke-linecap:round"
         id="path2108" />
      <path
         d="m 2136,-1105.2563 h 11.328"
         style="fill:none;stroke:#000000;stroke-linecap:round"
         id="path2110" />
      <path
         d="m 2147.328,-1105.2563 v 45.312"
         style="fill:none;stroke:#000000;stroke-linecap:round"
         id="path2112" />
      <path
         d="M 2147.328,-1059.9443 H 2136"
         style="fill:none;stroke:#000000;stroke-linecap:round"
         id="path2114" />
      <path
         d="m 2136,-1059.9443 v 45.312"
         style="fill:none;stroke:#000000;stroke-linecap:round"
         id="path2116" />
      <path
         d="m 2136,-1014.6323 h 11.328"
         style="fill:none;stroke:#000000;stroke-linecap:round"
         id="path2118" />
      <path
         d="m 2147.328,-1014.6323 v 45.31198"
         style="fill:none;stroke:#000000;stroke-linecap:round"
         id="path2120" />
      <path
         d="M 2147.328,-969.32032 H 2136"
         style="fill:none;stroke:#000000;stroke-linecap:round"
         id="path2122" />
      <path
         d="m 2136,-969.32032 v 45.312"
         style="fill:none;stroke:#000000;stroke-linecap:round"
         id="path2124" />
      <path
         d="m 2136,-924.00832 h 11.328"
         style="fill:none;stroke:#000000;stroke-linecap:round"
         id="path2126" />
      <path
         d="m 2147.328,-924.00832 v 45.312"
         style="fill:none;stroke:#000000;stroke-linecap:round"
         id="path2128" />
      <path
         d="M 2147.328,-878.69632 H 2136"
         style="fill:none;stroke:#000000;stroke-linecap:round"
         id="path2130" />
      <path
         d="m 2136,-878.69632 v 45.312"
         style="fill:none;stroke:#000000;stroke-linecap:round"
         id="path2132" />
      <path
         d="m 2136,-833.38432 h 11.328"
         style="fill:none;stroke:#000000;stroke-linecap:round"
         id="path2134" />
      <path
         d="m 2147.328,-833.38432 v 45.31201"
         style="fill:none;stroke:#000000;stroke-linecap:round"
         id="path2136" />
      <path
         d="M 2147.328,-788.07231 H 2136"
         style="fill:none;stroke:#000000;stroke-linecap:round"
         id="path2138" />
      <path
         d="m 2136,-788.07231 v 45.312"
         style="fill:none;stroke:#000000;stroke-linecap:round"
         id="path2140" />
      <path
         d="m 2136,-742.76031 h 11.328"
         style="fill:none;stroke:#000000;stroke-linecap:round"
         id="path2142" />
      <path
         d="m 2147.328,-742.76031 v 45.312"
         style="fill:none;stroke:#000000;stroke-linecap:round"
         id="path2144" />
      <path
         d="M 2147.328,-697.44831 H 2136"
         style="fill:none;stroke:#000000;stroke-linecap:round"
         id="path2146" />
      <path
         d="m 2136,-697.44831 v 45.312"
         style="fill:none;stroke:#000000;stroke-linecap:round"
         id="path2148" />
      <path
         d="m 2136,-652.13631 h 11.328"
         style="fill:none;stroke:#000000;stroke-linecap:round"
         id="path2150" />
      <path
         d="m 2147.328,-652.13631 v 45.312"
         style="fill:none;stroke:#000000;stroke-linecap:round"
         id="path2152" />
      <path
         d="M 2147.328,-606.82431 H 2136"
         style="fill:none;stroke:#000000;stroke-linecap:round"
         id="path2154" />
      <path
         d="m 2136,-606.82431 v 45.312"
         style="fill:none;stroke:#000000;stroke-linecap:round"
         id="path2156" />
      <path
         d="m 2136,-561.51231 h 11.328"
         style="fill:none;stroke:#000000;stroke-linecap:round"
         id="path2158" />
      <path
         d="m 2147.328,-561.51231 v 45.31199"
         style="fill:none;stroke:#000000;stroke-linecap:round"
         id="path2160" />
      <path
         d="M 2147.328,-516.20032 H 2136"
         style="fill:none;stroke:#000000;stroke-linecap:round"
         id="path2162" />
      <path
         d="m 2136,-516.20032 v 45.31201"
         style="fill:none;stroke:#000000;stroke-linecap:round"
         id="path2164" />
      <path
         d="m 2136,-470.88831 h 11.328"
         style="fill:none;stroke:#000000;stroke-linecap:round"
         id="path2166" />
      <path
         d="m 2147.328,-470.88831 v 45.31199"
         style="fill:none;stroke:#000000;stroke-linecap:round"
         id="path2168" />
      <path
         d="M 2147.328,-425.57632 H 2136"
         style="fill:none;stroke:#000000;stroke-linecap:round"
         id="path2170" />
      <path
         d="m 2136,-425.57632 v 45.31201"
         style="fill:none;stroke:#000000;stroke-linecap:round"
         id="path2172" />
      <path
         d="m 2136,-380.26431 h 11.328"
         style="fill:none;stroke:#000000;stroke-linecap:round"
         id="path2174" />
      <path
         d="m 2147.328,-380.26431 v 45.312"
         style="fill:none;stroke:#000000;stroke-linecap:round"
         id="path2176" />
      <path
         d="M 2147.328,-334.95231 H 2136"
         style="fill:none;stroke:#000000;stroke-linecap:round"
         id="path2178" />
      <path
         d="m 2136,-334.95231 v 45.312"
         style="fill:none;stroke:#000000;stroke-linecap:round"
         id="path2180" />
      <path
         d="m 2136,-289.64031 h 11.328"
         style="fill:none;stroke:#000000;stroke-linecap:round"
         id="path2182" />
      <path
         d="m 2147.328,-289.64031 v 45.312"
         style="fill:none;stroke:#000000;stroke-linecap:round"
         id="path2184" />
      <path
         d="M 2147.328,-244.32831 H 2136"
         style="fill:none;stroke:#000000;stroke-linecap:round"
         id="path2186" />
      <path
         d="m 2136,-244.32831 v 45.312"
         style="fill:none;stroke:#000000;stroke-linecap:round"
         id="path2188" />
      <path
         d="m 2136,-199.01631 h 11.328"
         style="fill:none;stroke:#000000;stroke-linecap:round"
         id="path2190" />
      <path
         d="m 2147.328,-199.01631 v 45.312"
         style="fill:none;stroke:#000000;stroke-linecap:round"
         id="path2192" />
      <path
         d="M 2147.328,-153.70431 H 2136"
         style="fill:none;stroke:#000000;stroke-linecap:round"
         id="path2194" />
      <path
         d="m 2136,-153.70431 v 45.312"
         style="fill:none;stroke:#000000;stroke-linecap:round"
         id="path2196" />
      <path
         d="m 2136,-108.39231 h 11.328"
         style="fill:none;stroke:#000000;stroke-linecap:round"
         id="path2198" />
      <path
         d="m 2147.328,-108.39231 v 43.583995"
         style="fill:none;stroke:#000000;stroke-linecap:round"
         id="path2200" />
      <path
         d="m 2147.328,-64.808315 h 38.208"
         style="fill:none;stroke:#000000;stroke-linecap:round"
         id="path2202" />
      <path
         d="m 2185.536,-64.808315 v 11.328"
         style="fill:none;stroke:#000000;stroke-linecap:round"
         id="path2204" />
      <path
         d="m 2185.536,-53.480315 h 45.312"
         style="fill:none;stroke:#000000;stroke-linecap:round"
         id="path2206" />
      <path
         d="m 2230.848,-53.480315 v -11.328"
         style="fill:none;stroke:#000000;stroke-linecap:round"
         id="path2208" />
      <path
         d="m 2230.848,-64.808315 h 45.312"
         style="fill:none;stroke:#000000;stroke-linecap:round"
         id="path2210" />
      <path
         d="m 2276.16,-64.808315 v 11.328"
         style="fill:none;stroke:#000000;stroke-linecap:round"
         id="path2212" />
      <path
         d="m 2276.16,-53.480315 h 45.312"
         style="fill:none;stroke:#000000;stroke-linecap:round"
         id="path2214" />
      <path
         d="m 2321.472,-53.480315 v -11.328"
         style="fill:none;stroke:#000000;stroke-linecap:round"
         id="path2216" />
      <path
         d="m 2321.472,-64.808315 h 45.312"
         style="fill:none;stroke:#000000;stroke-linecap:round"
         id="path2218" />
      <path
         d="m 2366.784,-64.808315 v 11.328"
         style="fill:none;stroke:#000000;stroke-linecap:round"
         id="path2220" />
      <path
         d="m 2366.784,-53.480315 h 45.312"
         style="fill:none;stroke:#000000;stroke-linecap:round"
         id="path2222" />
      <path
         d="m 2412.096,-53.480315 v -11.328"
         style="fill:none;stroke:#000000;stroke-linecap:round"
         id="path2224" />
      <path
         d="m 2412.096,-64.808315 h 45.312"
         style="fill:none;stroke:#000000;stroke-linecap:round"
         id="path2226" />
      <path
         d="m 2457.408,-64.808315 v 11.328"
         style="fill:none;stroke:#000000;stroke-linecap:round"
         id="path2228" />
      <path
         d="m 2457.408,-53.480315 h 45.312"
         style="fill:none;stroke:#000000;stroke-linecap:round"
         id="path2230" />
      <path
         d="m 2502.72,-53.480315 v -11.328"
         style="fill:none;stroke:#000000;stroke-linecap:round"
         id="path2232" />
      <path
         d="m 2502.72,-64.808315 h 45.312"
         style="fill:none;stroke:#000000;stroke-linecap:round"
         id="path2234" />
      <path
         d="m 2548.032,-64.808315 v 11.328"
         style="fill:none;stroke:#000000;stroke-linecap:round"
         id="path2236" />
      <path
         d="m 2548.032,-53.480315 h 45.312"
         style="fill:none;stroke:#000000;stroke-linecap:round"
         id="path2238" />
      <path
         d="m 2593.344,-53.480315 v -11.328"
         style="fill:none;stroke:#000000;stroke-linecap:round"
         id="path2240" />
      <path
         d="m 2593.344,-64.808315 h 45.312"
         style="fill:none;stroke:#000000;stroke-linecap:round"
         id="path2242" />
      <path
         d="m 2638.656,-64.808315 v 11.328"
         style="fill:none;stroke:#000000;stroke-linecap:round"
         id="path2244" />
      <path
         d="m 2638.656,-53.480315 h 45.312"
         style="fill:none;stroke:#000000;stroke-linecap:round"
         id="path2246" />
      <path
         d="m 2683.968,-53.480315 v -11.328"
         style="fill:none;stroke:#000000;stroke-linecap:round"
         id="path2248" />
      <path
         d="m 2683.968,-64.808315 h 45.312"
         style="fill:none;stroke:#000000;stroke-linecap:round"
         id="path2250" />
      <path
         d="m 2729.28,-64.808315 v 11.328"
         style="fill:none;stroke:#000000;stroke-linecap:round"
         id="path2252" />
      <path
         d="m 2729.28,-53.480315 h 45.312"
         style="fill:none;stroke:#000000;stroke-linecap:round"
         id="path2254" />
      <path
         d="m 2774.592,-53.480315 v -11.328"
         style="fill:none;stroke:#000000;stroke-linecap:round"
         id="path2256" />
      <path
         d="m 2774.592,-64.808315 h 45.312"
         style="fill:none;stroke:#000000;stroke-linecap:round"
         id="path2258" />
      <path
         d="m 2819.904,-64.808315 v 11.328"
         style="fill:none;stroke:#000000;stroke-linecap:round"
         id="path2260" />
      <path
         d="m 2819.904,-53.480315 h 45.312"
         style="fill:none;stroke:#000000;stroke-linecap:round"
         id="path2262" />
      <path
         d="m 2865.216,-53.480315 v -11.328"
         style="fill:none;stroke:#000000;stroke-linecap:round"
         id="path2264" />
      <path
         d="m 2865.216,-64.808315 h 45.312"
         style="fill:none;stroke:#000000;stroke-linecap:round"
         id="path2266" />
      <path
         d="m 2910.528,-64.808315 v 11.328"
         style="fill:none;stroke:#000000;stroke-linecap:round"
         id="path2268" />
      <path
         d="m 2910.528,-53.480315 h 45.312"
         style="fill:none;stroke:#000000;stroke-linecap:round"
         id="path2270" />
      <path
         d="m 2955.84,-53.480315 v -11.328"
         style="fill:none;stroke:#000000;stroke-linecap:round"
         id="path2272" />
      <path
         d="m 2955.84,-64.808315 h 45.312"
         style="fill:none;stroke:#000000;stroke-linecap:round"
         id="path2274" />
      <path
         d="m 3001.152,-64.808315 v 11.328"
         style="fill:none;stroke:#000000;stroke-linecap:round"
         id="path2276" />
      <path
         d="m 3001.152,-53.480315 h 45.312"
         style="fill:none;stroke:#000000;stroke-linecap:round"
         id="path2278" />
      <path
         d="m 3046.464,-53.480315 v -11.328"
         style="fill:none;stroke:#000000;stroke-linecap:round"
         id="path2280" />
      <path
         d="m 3046.464,-64.808315 h 38.208"
         style="fill:none;stroke:#000000;stroke-linecap:round"
         id="path2282" />
      <path
         d="M 3084.672,-64.808315 V -108.39231"
         style="fill:none;stroke:#000000;stroke-linecap:round"
         id="path2284" />
      <path
         d="M 3084.672,-108.39231 H 3096"
         style="fill:none;stroke:#000000;stroke-linecap:round"
         id="path2286" />
      <path
         d="m 3096,-108.39231 v -45.312"
         style="fill:none;stroke:#000000;stroke-linecap:round"
         id="path2288" />
      <path
         d="m 3096,-153.70431 h -11.328"
         style="fill:none;stroke:#000000;stroke-linecap:round"
         id="path2290" />
      <path
         d="m 3084.672,-153.70431 v -45.312"
         style="fill:none;stroke:#000000;stroke-linecap:round"
         id="path2292" />
      <path
         d="M 3084.672,-199.01631 H 3096"
         style="fill:none;stroke:#000000;stroke-linecap:round"
         id="path2294" />
      <path
         d="m 3096,-199.01631 v -45.312"
         style="fill:none;stroke:#000000;stroke-linecap:round"
         id="path2296" />
      <path
         d="m 3096,-244.32831 h -11.328"
         style="fill:none;stroke:#000000;stroke-linecap:round"
         id="path2298" />
      <path
         d="m 3084.672,-244.32831 v -45.312"
         style="fill:none;stroke:#000000;stroke-linecap:round"
         id="path2300" />
      <path
         d="M 3084.672,-289.64031 H 3096"
         style="fill:none;stroke:#000000;stroke-linecap:round"
         id="path2302" />
      <path
         d="m 3096,-289.64031 v -45.312"
         style="fill:none;stroke:#000000;stroke-linecap:round"
         id="path2304" />
      <path
         d="m 3096,-334.95231 h -11.328"
         style="fill:none;stroke:#000000;stroke-linecap:round"
         id="path2306" />
      <path
         d="m 3084.672,-334.95231 v -45.312"
         style="fill:none;stroke:#000000;stroke-linecap:round"
         id="path2308" />
      <path
         d="M 3084.672,-380.26431 H 3096"
         style="fill:none;stroke:#000000;stroke-linecap:round"
         id="path2310" />
      <path
         d="m 3096,-380.26431 v -45.31201"
         style="fill:none;stroke:#000000;stroke-linecap:round"
         id="path2312" />
      <path
         d="m 3096,-425.57632 h -11.328"
         style="fill:none;stroke:#000000;stroke-linecap:round"
         id="path2314" />
      <path
         d="m 3084.672,-425.57632 v -45.31199"
         style="fill:none;stroke:#000000;stroke-linecap:round"
         id="path2316" />
      <path
         d="M 3084.672,-470.88831 H 3096"
         style="fill:none;stroke:#000000;stroke-linecap:round"
         id="path2318" />
      <path
         d="m 3096,-470.88831 v -45.31201"
         style="fill:none;stroke:#000000;stroke-linecap:round"
         id="path2320" />
      <path
         d="m 3096,-516.20032 h -11.328"
         style="fill:none;stroke:#000000;stroke-linecap:round"
         id="path2322" />
      <path
         d="m 3084.672,-516.20032 v -45.31199"
         style="fill:none;stroke:#000000;stroke-linecap:round"
         id="path2324" />
      <path
         d="M 3084.672,-561.51231 H 3096"
         style="fill:none;stroke:#000000;stroke-linecap:round"
         id="path2326" />
      <path
         d="m 3096,-561.51231 v -45.312"
         style="fill:none;stroke:#000000;stroke-linecap:round"
         id="path2328" />
      <path
         d="m 3096,-606.82431 h -11.328"
         style="fill:none;stroke:#000000;stroke-linecap:round"
         id="path2330" />
      <path
         d="m 3084.672,-606.82431 v -45.312"
         style="fill:none;stroke:#000000;stroke-linecap:round"
         id="path2332" />
      <path
         d="M 3084.672,-652.13631 H 3096"
         style="fill:none;stroke:#000000;stroke-linecap:round"
         id="path2334" />
      <path
         d="m 3096,-652.13631 v -45.312"
         style="fill:none;stroke:#000000;stroke-linecap:round"
         id="path2336" />
      <path
         d="m 3096,-697.44831 h -11.328"
         style="fill:none;stroke:#000000;stroke-linecap:round"
         id="path2338" />
      <path
         d="m 3084.672,-697.44831 v -45.312"
         style="fill:none;stroke:#000000;stroke-linecap:round"
         id="path2340" />
      <path
         d="M 3084.672,-742.76031 H 3096"
         style="fill:none;stroke:#000000;stroke-linecap:round"
         id="path2342" />
      <path
         d="m 3096,-742.76031 v -45.312"
         style="fill:none;stroke:#000000;stroke-linecap:round"
         id="path2344" />
      <path
         d="m 3096,-788.07231 h -11.328"
         style="fill:none;stroke:#000000;stroke-linecap:round"
         id="path2346" />
      <path
         d="m 3084.672,-788.07231 v -45.31201"
         style="fill:none;stroke:#000000;stroke-linecap:round"
         id="path2348" />
      <path
         d="M 3084.672,-833.38432 H 3096"
         style="fill:none;stroke:#000000;stroke-linecap:round"
         id="path2350" />
      <path
         d="m 3096,-833.38432 v -45.312"
         style="fill:none;stroke:#000000;stroke-linecap:round"
         id="path2352" />
      <path
         d="m 3096,-878.69632 h -11.328"
         style="fill:none;stroke:#000000;stroke-linecap:round"
         id="path2354" />
      <path
         d="m 3084.672,-878.69632 v -45.312"
         style="fill:none;stroke:#000000;stroke-linecap:round"
         id="path2356" />
      <path
         d="M 3084.672,-924.00832 H 3096"
         style="fill:none;stroke:#000000;stroke-linecap:round"
         id="path2358" />
      <path
         d="m 3096,-924.00832 v -45.312"
         style="fill:none;stroke:#000000;stroke-linecap:round"
         id="path2360" />
      <path
         d="m 3096,-969.32032 h -11.328"
         style="fill:none;stroke:#000000;stroke-linecap:round"
         id="path2362" />
      <path
         d="m 3084.672,-969.32032 v -45.31198"
         style="fill:none;stroke:#000000;stroke-linecap:round"
         id="path2364" />
      <path
         d="M 3084.672,-1014.6323 H 3096"
         style="fill:none;stroke:#000000;stroke-linecap:round"
         id="path2366" />
      <path
         d="m 3096,-1014.6323 v -45.312"
         style="fill:none;stroke:#000000;stroke-linecap:round"
         id="path2368" />
      <path
         d="m 3096,-1059.9443 h -11.328"
         style="fill:none;stroke:#000000;stroke-linecap:round"
         id="path2370" />
      <path
         d="m 3084.672,-1059.9443 v -45.312"
         style="fill:none;stroke:#000000;stroke-linecap:round"
         id="path2372" />
      <path
         d="M 3084.672,-1105.2563 H 3096"
         style="fill:none;stroke:#000000;stroke-linecap:round"
         id="path2374" />
      <path
         d="m 3096,-1105.2563 v -45.312"
         style="fill:none;stroke:#000000;stroke-linecap:round"
         id="path2376" />
      <path
         d="m 3096,-1150.5683 h -11.328"
         style="fill:none;stroke:#000000;stroke-linecap:round"
         id="path2378" />
      <path
         d="m 3084.672,-1150.5683 v -43.584"
         style="fill:none;stroke:#000000;stroke-linecap:round"
         id="path2380" />
      <path
         d="m 3084.672,-1194.1523 h -38.208"
         style="fill:none;stroke:#000000;stroke-linecap:round"
         id="path2382" />
      <path
         d="m 3046.464,-1194.1523 v -11.328"
         style="fill:none;stroke:#000000;stroke-linecap:round"
         id="path2384" />
      <path
         d="m 3046.464,-1205.4803 h -45.312"
         style="fill:none;stroke:#000000;stroke-linecap:round"
         id="path2386" />
      <path
         d="m 3001.152,-1205.4803 v 11.328"
         style="fill:none;stroke:#000000;stroke-linecap:round"
         id="path2388" />
      <path
         d="M 3001.152,-1194.1523 H 2955.84"
         style="fill:none;stroke:#000000;stroke-linecap:round"
         id="path2390" />
      <path
         d="m 2955.84,-1194.1523 v -11.328"
         style="fill:none;stroke:#000000;stroke-linecap:round"
         id="path2392" />
      <path
         d="m 2955.84,-1205.4803 h -45.312"
         style="fill:none;stroke:#000000;stroke-linecap:round"
         id="path2394" />
      <path
         d="m 2910.528,-1205.4803 v 11.328"
         style="fill:none;stroke:#000000;stroke-linecap:round"
         id="path2396" />
      <path
         d="m 2910.528,-1194.1523 h -45.312"
         style="fill:none;stroke:#000000;stroke-linecap:round"
         id="path2398" />
      <path
         d="m 2865.216,-1194.1523 v -11.328"
         style="fill:none;stroke:#000000;stroke-linecap:round"
         id="path2400" />
      <path
         d="m 2865.216,-1205.4803 h -45.312"
         style="fill:none;stroke:#000000;stroke-linecap:round"
         id="path2402" />
      <path
         d="m 2819.904,-1205.4803 v 11.328"
         style="fill:none;stroke:#000000;stroke-linecap:round"
         id="path2404" />
      <path
         d="m 2819.904,-1194.1523 h -45.312"
         style="fill:none;stroke:#000000;stroke-linecap:round"
         id="path2406" />
      <path
         d="m 2774.592,-1194.1523 v -11.328"
         style="fill:none;stroke:#000000;stroke-linecap:round"
         id="path2408" />
      <path
         d="M 2774.592,-1205.4803 H 2729.28"
         style="fill:none;stroke:#000000;stroke-linecap:round"
         id="path2410" />
      <path
         d="m 2729.28,-1205.4803 v 11.328"
         style="fill:none;stroke:#000000;stroke-linecap:round"
         id="path2412" />
      <path
         d="m 2729.28,-1194.1523 h -45.312"
         style="fill:none;stroke:#000000;stroke-linecap:round"
         id="path2414" />
      <path
         d="m 2683.968,-1194.1523 v -11.328"
         style="fill:none;stroke:#000000;stroke-linecap:round"
         id="path2416" />
      <path
         d="m 2683.968,-1205.4803 h -45.312"
         style="fill:none;stroke:#000000;stroke-linecap:round"
         id="path2418" />
      <path
         d="m 2638.656,-1205.4803 v 11.328"
         style="fill:none;stroke:#000000;stroke-linecap:round"
         id="path2420" />
      <path
         d="m 2638.656,-1194.1523 h -45.312"
         style="fill:none;stroke:#000000;stroke-linecap:round"
         id="path2422" />
      <path
         d="m 2593.344,-1194.1523 v -11.328"
         style="fill:none;stroke:#000000;stroke-linecap:round"
         id="path2424" />
      <path
         d="m 2593.344,-1205.4803 h -45.312"
         style="fill:none;stroke:#000000;stroke-linecap:round"
         id="path2426" />
      <path
         d="m 2548.032,-1205.4803 v 11.328"
         style="fill:none;stroke:#000000;stroke-linecap:round"
         id="path2428" />
      <path
         d="M 2548.032,-1194.1523 H 2502.72"
         style="fill:none;stroke:#000000;stroke-linecap:round"
         id="path2430" />
      <path
         d="m 2502.72,-1194.1523 v -11.328"
         style="fill:none;stroke:#000000;stroke-linecap:round"
         id="path2432" />
      <path
         d="m 2502.72,-1205.4803 h -45.312"
         style="fill:none;stroke:#000000;stroke-linecap:round"
         id="path2434" />
      <path
         d="m 2457.408,-1205.4803 v 11.328"
         style="fill:none;stroke:#000000;stroke-linecap:round"
         id="path2436" />
      <path
         d="m 2457.408,-1194.1523 h -45.312"
         style="fill:none;stroke:#000000;stroke-linecap:round"
         id="path2438" />
      <path
         d="m 2412.096,-1194.1523 v -11.328"
         style="fill:none;stroke:#000000;stroke-linecap:round"
         id="path2440" />
      <path
         d="m 2412.096,-1205.4803 h -45.312"
         style="fill:none;stroke:#000000;stroke-linecap:round"
         id="path2442" />
      <path
         d="m 2366.784,-1205.4803 v 11.328"
         style="fill:none;stroke:#000000;stroke-linecap:round"
         id="path2444" />
      <path
         d="m 2366.784,-1194.1523 h -45.312"
         style="fill:none;stroke:#000000;stroke-linecap:round"
         id="path2446" />
      <path
         d="m 2321.472,-1194.1523 v -11.328"
         style="fill:none;stroke:#000000;stroke-linecap:round"
         id="path2448" />
      <path
         d="M 2321.472,-1205.4803 H 2276.16"
         style="fill:none;stroke:#000000;stroke-linecap:round"
         id="path2450" />
      <path
         d="m 2276.16,-1205.4803 v 11.328"
         style="fill:none;stroke:#000000;stroke-linecap:round"
         id="path2452" />
      <path
         d="m 2276.16,-1194.1523 h -45.312"
         style="fill:none;stroke:#000000;stroke-linecap:round"
         id="path2454" />
      <path
         d="m 2230.848,-1194.1523 v -11.328"
         style="fill:none;stroke:#000000;stroke-linecap:round"
         id="path2456" />
      <path
         d="m 2230.848,-1205.4803 h -45.312"
         style="fill:none;stroke:#000000;stroke-linecap:round"
         id="path2458" />
      <path
         d="m 2185.536,-1205.4803 v 11.328"
         style="fill:none;stroke:#000000;stroke-linecap:round"
         id="path2460" />
      <path
         d="m 2185.536,-1194.1523 h -38.208"
         style="fill:none;stroke:#000000;stroke-linecap:round"
         id="path2462" />
    </g>
  </g>
  <desc
     id="desc2466">vialholder2.dxf - scale = 1.000000, origin = (0.000000, 0.000000), method = file</desc>
</svg>
